<svg width="96" height="36" viewBox="0 0 96 36" fill="none" xmlns="http://www.w3.org/2000/svg">
<rect width="96" height="36" fill="#F5F5F5"/>
<g id="Buttons">
<rect width="960" height="543" transform="translate(-488 -83)" fill="#EEEEEE"/>
<g id="bg">
</g>
<g id="button states">
<g id="button flat (pressed)">
<g id="bg (hover)" opacity="0.12">
<rect width="96" height="36" rx="2" fill="#1554F6"/>
</g>
<path id="label" d="M24.7551 18.502H22.2189L22.2053 17.251H24.4201C24.7938 17.251 25.1105 17.1963 25.3703 17.0869C25.6346 16.973 25.8352 16.8112 25.9719 16.6016C26.1086 16.3874 26.177 16.1299 26.177 15.8291C26.177 15.4964 26.1132 15.2253 25.9855 15.0156C25.8579 14.806 25.662 14.6533 25.3977 14.5576C25.1379 14.4619 24.8052 14.4141 24.3996 14.4141H22.7385V23H21.0227V13.0469H24.3996C24.9465 13.0469 25.4341 13.0993 25.8625 13.2041C26.2954 13.3089 26.6623 13.473 26.9631 13.6963C27.2684 13.915 27.4986 14.193 27.6535 14.5303C27.813 14.8675 27.8928 15.2686 27.8928 15.7334C27.8928 16.1436 27.7948 16.5195 27.5988 16.8613C27.4029 17.1986 27.1135 17.4743 26.7307 17.6885C26.3479 17.9027 25.8716 18.0303 25.302 18.0713L24.7551 18.502ZM24.6799 23H21.6789L22.4514 21.6396H24.6799C25.0673 21.6396 25.3908 21.5758 25.6506 21.4482C25.9104 21.3161 26.104 21.1361 26.2316 20.9082C26.3638 20.6758 26.4299 20.4046 26.4299 20.0947C26.4299 19.7712 26.3729 19.4909 26.259 19.2539C26.1451 19.0124 25.965 18.8278 25.7189 18.7002C25.4729 18.568 25.1516 18.502 24.7551 18.502H22.8273L22.841 17.251H25.3498L25.7395 17.7227C26.2863 17.7409 26.7352 17.8617 27.0861 18.085C27.4416 18.3083 27.7059 18.5977 27.8791 18.9531C28.0523 19.3086 28.1389 19.6914 28.1389 20.1016C28.1389 20.735 27.9999 21.266 27.7219 21.6943C27.4484 22.1227 27.0542 22.4486 26.5393 22.6719C26.0243 22.8906 25.4045 23 24.6799 23ZM35.7333 13.0469H37.4423V19.6982C37.4423 20.4548 37.2782 21.0882 36.9501 21.5986C36.622 22.109 36.1754 22.4941 35.6103 22.7539C35.0497 23.0091 34.4231 23.1367 33.7304 23.1367C33.0149 23.1367 32.3769 23.0091 31.8163 22.7539C31.2558 22.4941 30.8137 22.109 30.4902 21.5986C30.1711 21.0882 30.0116 20.4548 30.0116 19.6982V13.0469H31.7206V19.6982C31.7206 20.1768 31.8027 20.571 31.9667 20.8809C32.1308 21.1862 32.3632 21.4118 32.664 21.5576C32.9648 21.7035 33.3202 21.7764 33.7304 21.7764C34.1405 21.7764 34.4937 21.7035 34.79 21.5576C35.0907 21.4118 35.3232 21.1862 35.4872 20.8809C35.6513 20.571 35.7333 20.1768 35.7333 19.6982V13.0469ZM43.6832 13.0469V23H41.9811V13.0469H43.6832ZM46.8073 13.0469V14.4141H38.8844V13.0469H46.8073ZM52.6039 13.0469V23H50.9017V13.0469H52.6039ZM55.7279 13.0469V14.4141H47.805V13.0469H55.7279ZM65.0655 17.75V18.2969C65.0655 19.0488 64.9675 19.7233 64.7716 20.3203C64.5756 20.9173 64.2953 21.4255 63.9307 21.8447C63.5707 22.264 63.1378 22.5853 62.6319 22.8086C62.1261 23.0273 61.5655 23.1367 60.9503 23.1367C60.3396 23.1367 59.7813 23.0273 59.2755 22.8086C58.7742 22.5853 58.3389 22.264 57.9698 21.8447C57.6007 21.4255 57.3136 20.9173 57.1085 20.3203C56.908 19.7233 56.8077 19.0488 56.8077 18.2969V17.75C56.8077 16.998 56.908 16.3258 57.1085 15.7334C57.309 15.1364 57.5915 14.6283 57.9561 14.209C58.3253 13.7852 58.7605 13.4639 59.2618 13.2451C59.7677 13.0218 60.3259 12.9102 60.9366 12.9102C61.5518 12.9102 62.1124 13.0218 62.6182 13.2451C63.1241 13.4639 63.5593 13.7852 63.9239 14.209C64.2885 14.6283 64.5688 15.1364 64.7647 15.7334C64.9652 16.3258 65.0655 16.998 65.0655 17.75ZM63.3497 18.2969V17.7363C63.3497 17.1803 63.295 16.6904 63.1856 16.2666C63.0808 15.8382 62.9236 15.4805 62.7139 15.1934C62.5089 14.9017 62.2559 14.6829 61.9552 14.5371C61.6544 14.3867 61.3149 14.3115 60.9366 14.3115C60.5583 14.3115 60.2211 14.3867 59.9249 14.5371C59.6287 14.6829 59.3757 14.9017 59.1661 15.1934C58.961 15.4805 58.8038 15.8382 58.6944 16.2666C58.585 16.6904 58.5303 17.1803 58.5303 17.7363V18.2969C58.5303 18.8529 58.585 19.3451 58.6944 19.7734C58.8038 20.2018 58.9633 20.5641 59.1729 20.8604C59.3871 21.152 59.6423 21.373 59.9386 21.5234C60.2348 21.6693 60.572 21.7422 60.9503 21.7422C61.3331 21.7422 61.6726 21.6693 61.9688 21.5234C62.2651 21.373 62.5157 21.152 62.7208 20.8604C62.9259 20.5641 63.0808 20.2018 63.1856 19.7734C63.295 19.3451 63.3497 18.8529 63.3497 18.2969ZM74.9568 13.0469V23H73.241L68.7771 15.8701V23H67.0613V13.0469H68.7771L73.2547 20.1904V13.0469H74.9568Z" fill="#1554F6"/>
</g>
</g>
</g>
</svg>
