<svg width="96" height="36" viewBox="0 0 96 36" fill="none" xmlns="http://www.w3.org/2000/svg">
<g id="Text Button">
<path id="label" d="M21.0637 23V13.0469H24.4748C25.6005 13.0469 26.4572 13.2725 27.0451 13.7236C27.633 14.1748 27.927 14.847 27.927 15.7402C27.927 16.196 27.8039 16.6061 27.5578 16.9707C27.3117 17.3353 26.9517 17.6178 26.4777 17.8184C27.0155 17.9642 27.4302 18.2399 27.7219 18.6455C28.0181 19.0465 28.1662 19.5296 28.1662 20.0947C28.1662 21.029 27.8654 21.7467 27.2639 22.248C26.6669 22.7493 25.8101 23 24.6936 23H21.0637ZM22.7932 18.5088V21.6191H24.7141C25.2564 21.6191 25.6802 21.4847 25.9855 21.2158C26.2909 20.9469 26.4436 20.5732 26.4436 20.0947C26.4436 19.0602 25.9149 18.5316 24.8576 18.5088H22.7932ZM22.7932 17.2373H24.4885C25.0262 17.2373 25.4455 17.1165 25.7463 16.875C26.0516 16.6289 26.2043 16.2826 26.2043 15.8359C26.2043 15.3438 26.063 14.9883 25.7805 14.7695C25.5025 14.5508 25.0673 14.4414 24.4748 14.4414H22.7932V17.2373ZM37.456 13.0469V19.6982C37.456 20.7555 37.1165 21.5941 36.4374 22.2139C35.7629 22.8291 34.8629 23.1367 33.7372 23.1367C32.5979 23.1367 31.6933 22.8337 31.0234 22.2275C30.3534 21.6169 30.0185 20.7715 30.0185 19.6914V13.0469H31.7411V19.7051C31.7411 20.3704 31.9098 20.8786 32.247 21.2295C32.5842 21.5804 33.081 21.7559 33.7372 21.7559C35.068 21.7559 35.7333 21.054 35.7333 19.6504V13.0469H37.456ZM46.7799 14.4414H43.6764V23H41.9606V14.4414H38.8844V13.0469H46.7799V14.4414ZM55.6732 14.4414H52.5697V23H50.8539V14.4414H47.7777V13.0469H55.6732V14.4414ZM65.0177 18.2832C65.0177 19.2585 64.849 20.1152 64.5118 20.8535C64.1746 21.5872 63.6915 22.1523 63.0626 22.5488C62.4382 22.9408 61.7182 23.1367 60.9024 23.1367C60.0958 23.1367 59.3757 22.9408 58.7423 22.5488C58.1134 22.1523 57.6257 21.5895 57.2794 20.8604C56.9376 20.1312 56.7644 19.2904 56.7598 18.3379V17.7773C56.7598 16.8066 56.9307 15.9499 57.2725 15.207C57.6189 14.4642 58.1042 13.8968 58.7286 13.5049C59.3575 13.1084 60.0776 12.9102 60.8887 12.9102C61.6999 12.9102 62.4177 13.1061 63.0421 13.498C63.671 13.8854 64.1563 14.446 64.4981 15.1797C64.8399 15.9089 65.0131 16.7588 65.0177 17.7295V18.2832ZM63.2882 17.7637C63.2882 16.6608 63.0785 15.8154 62.6593 15.2275C62.2445 14.6396 61.6544 14.3457 60.8887 14.3457C60.1414 14.3457 59.5557 14.6396 59.1319 15.2275C58.7126 15.8109 58.4984 16.638 58.4893 17.709V18.2832C58.4893 19.377 58.7012 20.2223 59.1251 20.8193C59.5535 21.4163 60.1459 21.7148 60.9024 21.7148C61.668 21.7148 62.2559 21.4232 62.6661 20.8398C63.0808 20.2565 63.2882 19.4043 63.2882 18.2832V17.7637ZM74.9158 23H73.1863L68.7498 15.9385V23H67.0203V13.0469H68.7498L73.2 20.1357V13.0469H74.9158V23Z" fill="#1554F6"/>
</g>
</svg>
